General

Format                           : MPEG-4
Format profile                   : Base Media
Codec ID                         : isom
File size                        : 127 MiB
Duration                         : 3mn 28s
Overall bit rate                 : 5 082 Kbps
Encoded date                     : UTC 2012-03-27 03:51:59
Tagged date                      : UTC 2012-03-27 03:51:59

Video
ID                               : 1
Format                           : AVC
Format/Info                      : Advanced Video Codec
Format profile                   : High@L3.0
Format settings, CABAC           : Yes
Format settings, ReFrames        : 2 frames
Format settings, GOP             : M=1, N=15
Codec ID                         : avc1
Codec ID/Info                    : Advanced Video Coding
Duration                         : 3mn 28s
Bit rate mode                    : Variable
Bit rate                         : 5 034 Kbps
Maximum bit rate                 : 10.1 Mbps
Width                            : 720 pixels
Height                           : 480 pixels
Display aspect ratio             : 4:3
Original display aspect ratio    : 4:3
Frame rate mode                  : Constant
Frame rate                       : 29.970 fps
Standard                         : NTSC
Color space                      : YUV
Chroma subsampling               : 4:2:0
Bit depth                        : 8 bits
Scan type                        : Progressive
Bits/(Pixel*Frame)               : 0.486
Stream size                      : 124 MiB (98%)


Audio
ID                               : 2
Format                           : AAC
Format/Info                      : Advanced Audio Codec
Format profile                   : LC
Codec ID                         : 40
Duration                         : 3mn 28s
Bit rate mode                    : Variable
Bit rate                         : 80.8 Kbps
Maximum bit rate                 : 91.1 Kbps
Channel(s)                       : 2 channels
Channel positions                : Front: L R
Sampling rate                    : 48.0 KHz
Compression mode                 : Lossy
Stream size                      : 2.01 MiB (2%)


